<svg id="Capa_1" data-name="Capa 1" xmlns="http://www.w3.org/2000/svg" xmlns:xlink="http://www.w3.org/1999/xlink" viewBox="0 0 213.55 213.55"><defs><style>.cls-1{fill:url(#Degradado_sin_nombre_113);}.cls-2{fill:#fff;}.cls-3{fill:url(#Degradado_sin_nombre_114);}.cls-4{fill:url(#Degradado_sin_nombre_114-2);}.cls-5{fill:url(#Degradado_sin_nombre_114-3);}.cls-6{fill:url(#Degradado_sin_nombre_114-4);}.cls-7{fill:url(#Degradado_sin_nombre_114-5);}.cls-8{fill:url(#Degradado_sin_nombre_114-6);}.cls-9{fill:url(#Degradado_sin_nombre_114-7);}.cls-10{fill:url(#Degradado_sin_nombre_114-8);}</style><radialGradient id="Degradado_sin_nombre_113" cx="583.66" cy="193.45" r="106.78" gradientUnits="userSpaceOnUse"><stop offset="0.02" stop-color="#2cb01c"/><stop offset="0.44" stop-color="#2cb01c"/><stop offset="0.99" stop-color="#0a8300"/></radialGradient><radialGradient id="Degradado_sin_nombre_114" cx="583.35" cy="137.09" r="30.18" gradientUnits="userSpaceOnUse"><stop offset="0.02" stop-color="#fff"/><stop offset="0.14" stop-color="#fffba6"/><stop offset="0.77" stop-color="#fff537"/><stop offset="0.99" stop-color="#fbee00"/></radialGradient><radialGradient id="Degradado_sin_nombre_114-2" cx="583.35" cy="244.94" r="31.34" xlink:href="#Degradado_sin_nombre_114"/><radialGradient id="Degradado_sin_nombre_114-3" cx="529.36" cy="189.01" r="30.92" xlink:href="#Degradado_sin_nombre_114"/><radialGradient id="Degradado_sin_nombre_114-4" cx="636.94" cy="189.01" r="30.75" xlink:href="#Degradado_sin_nombre_114"/><radialGradient id="Degradado_sin_nombre_114-5" cx="541.67" cy="230.62" r="33.17" xlink:href="#Degradado_sin_nombre_114"/><radialGradient id="Degradado_sin_nombre_114-6" cx="624.73" cy="147.56" r="33.4" xlink:href="#Degradado_sin_nombre_114"/><radialGradient id="Degradado_sin_nombre_114-7" cx="625.79" cy="231.75" r="33.58" xlink:href="#Degradado_sin_nombre_114"/><radialGradient id="Degradado_sin_nombre_114-8" cx="542.74" cy="148.69" r="33" xlink:href="#Degradado_sin_nombre_114"/></defs><title>logo</title><path class="cls-1" d="M583.66,86.67A106.78,106.78,0,1,0,690.44,193.45,106.78,106.78,0,0,0,583.66,86.67Zm0,208.39a102,102,0,1,1,102-102A102,102,0,0,1,583.66,295.06Z" transform="translate(-476.88 -86.67)"/><circle class="cls-2" cx="106.78" cy="106.39" r="102"/><path class="cls-3" d="M590.15,172.1l16.78-51.2A14.42,14.42,0,0,0,593.1,102H573.61a14.42,14.42,0,0,0-13.83,18.9l16.78,51.28A18.73,18.73,0,0,1,590.15,172.1Z" transform="translate(-476.88 -86.67)"/><path class="cls-4" d="M577.69,207.87l-17.91,54.94A14.65,14.65,0,0,0,573.61,282H593.1a14.65,14.65,0,0,0,13.83-19.19L589,207.93A19,19,0,0,1,577.69,207.87Z" transform="translate(-476.88 -86.67)"/><path class="cls-5" d="M565.72,182.87l-53.5-17.42A14.67,14.67,0,0,0,493,179.27v19.49a14.67,14.67,0,0,0,19.22,13.83l52.92-17.26A18.94,18.94,0,0,1,565.72,182.87Z" transform="translate(-476.88 -86.67)"/><path class="cls-6" d="M654.13,165.44l-53.24,17.42a18.73,18.73,0,0,1,.56,12.45l52.66,17.26A14.4,14.4,0,0,0,673,198.76V179.27A14.39,14.39,0,0,0,654.13,165.44Z" transform="translate(-476.88 -86.67)"/><path class="cls-7" d="M566,197.4L516.5,222.53a14.55,14.55,0,0,0-3.7,23.26l13.78,13.78a14.55,14.55,0,0,0,23.26-3.7l25-49.19A19,19,0,0,1,566,197.4Z" transform="translate(-476.88 -86.67)"/><path class="cls-8" d="M600.1,180.92l50.1-25.43a14.55,14.55,0,0,0,3.7-23.26l-13.78-13.78a14.55,14.55,0,0,0-23.26,3.7l-25.59,50.42A19,19,0,0,1,600.1,180.92Z" transform="translate(-476.88 -86.67)"/><path class="cls-9" d="M592.24,206.52l25.81,50.87a14.55,14.55,0,0,0,23.26,3.7l13.78-13.78a14.55,14.55,0,0,0-3.7-23.26l-51-25.91A19,19,0,0,1,592.24,206.52Z" transform="translate(-476.88 -86.67)"/><path class="cls-10" d="M575.76,172.42L551,123.68a14.55,14.55,0,0,0-23.26-3.7L514,133.76a14.55,14.55,0,0,0,3.7,23.26l48.56,24.65A19,19,0,0,1,575.76,172.42Z" transform="translate(-476.88 -86.67)"/></svg>